<svg id="sample-a.svg" xmlns="http://www.w3.org/2000/svg" width="64" height="64" viewBox="0 0 64 64">
  <defs>
    <style>
      .cls-1 {
        fill-opacity: 0;
      }

      .cls-1, .cls-2 {
        fill-rule: evenodd;
      }

      .cls-2 {
        fill: #fff;
      }
    </style>
  </defs>
  <path id="rect" class="cls-1" d="M166,13.011h64v64H166v-64Z" transform="translate(-166 -13)"/>
  <path id="shape" class="cls-2" d="M219.9,66.882H207.058l-9.082,9.082-9.083-9.082H176.05V54.038l-9.083-9.082,9.083-9.082V23.03h12.843l9.083-9.082,9.082,9.082H219.9V35.874l9.082,9.082L219.9,54.038V66.882Zm-26.657-39.5-1.8,1.8H182.2v9.239l-6.533,6.533,6.533,6.533v9.239h9.238l6.534,6.533,6.532-6.533h9.239V51.489l6.533-6.533-6.533-6.533V29.184h-9.239l-6.532-6.533Z" transform="translate(-166 -13)"/>
</svg>
